<?xml version="1.0" standalone="no"?>
<!DOCTYPE svg PUBLIC "-//W3C//DTD SVG 20010904//EN"
 "http://www.w3.org/TR/2001/REC-SVG-20010904/DTD/svg10.dtd">
<svg version="1.0" xmlns="http://www.w3.org/2000/svg"
 width="868.000000pt" height="874.000000pt" viewBox="0 0 868.000000 874.000000"
 preserveAspectRatio="xMidYMid meet">

<g transform="translate(0.000000,874.000000) scale(0.100000,-0.100000)"
fill="#000000" stroke="none">
<path d="M0 4370 l0 -4370 4340 0 4340 0 0 4370 0 4370 -4340 0 -4340 0 0
-4370z m4700 4225 c107 -8 215 -19 240 -24 25 -5 99 -17 165 -26 66 -9 163
-28 215 -41 52 -14 111 -29 130 -34 19 -5 58 -16 87 -24 28 -9 57 -16 64 -16
12 0 208 -70 254 -90 11 -5 43 -18 71 -29 46 -18 85 -34 179 -76 474 -210 891
-497 1260 -869 135 -135 248 -261 328 -365 15 -20 38 -47 50 -61 65 -75 307
-445 307 -470 0 -5 3 -10 8 -10 4 0 12 -10 18 -23 6 -12 42 -85 81 -162 74
-145 108 -218 138 -295 10 -25 23 -58 30 -75 18 -42 100 -288 120 -360 9 -33
21 -76 27 -95 6 -19 15 -51 19 -70 4 -19 15 -66 24 -105 61 -261 89 -549 90
-905 0 -368 -27 -645 -90 -915 -9 -38 -20 -86 -24 -105 -15 -64 -62 -235 -70
-255 -19 -46 -34 -92 -38 -118 -3 -15 -9 -30 -14 -33 -5 -3 -9 -12 -9 -21 0
-8 -7 -31 -16 -51 -39 -87 -44 -101 -44 -109 0 -5 -8 -27 -19 -49 -10 -21 -26
-57 -36 -79 -52 -122 -179 -365 -241 -463 -19 -29 -34 -54 -34 -56 0 -14 -173
-261 -250 -356 -20 -25 -61 -77 -92 -115 -231 -289 -600 -617 -954 -848 -100
-66 -124 -80 -275 -161 -91 -50 -243 -125 -299 -149 -19 -8 -55 -24 -80 -35
-146 -64 -259 -105 -405 -146 -33 -10 -71 -21 -85 -26 -47 -15 -135 -39 -185
-49 -27 -6 -72 -16 -100 -22 -27 -7 -72 -15 -100 -19 -27 -4 -77 -12 -110 -18
-82 -14 -205 -29 -360 -43 -259 -23 -823 5 -1035 51 -48 11 -238 49 -280 57
-14 3 -45 11 -70 18 -25 7 -72 21 -105 30 -157 45 -384 125 -437 155 -10 6
-22 10 -27 10 -18 0 -233 102 -336 160 -16 9 -70 38 -120 65 -119 64 -347 215
-478 317 -174 135 -482 420 -592 548 -68 79 -165 200 -221 275 -32 44 -67 89
-77 100 -21 23 -186 289 -240 386 -76 138 -176 349 -227 479 -29 74 -56 144
-61 155 -7 17 -34 99 -78 240 -16 49 -57 219 -81 330 -9 41 -30 166 -50 290
-39 255 -39 857 0 1135 18 120 41 262 50 300 5 19 16 67 25 105 9 39 20 84 24
100 5 17 17 57 26 90 34 120 47 160 55 180 5 11 21 56 35 100 58 171 168 418
253 570 19 33 48 85 64 115 17 30 53 88 79 129 27 41 49 76 49 78 0 6 186 263
212 294 13 15 41 48 63 75 190 230 459 490 685 664 25 19 51 40 58 47 8 7 23
18 35 25 12 6 46 29 76 51 29 22 63 45 75 51 11 6 53 32 91 57 39 25 97 60
130 79 33 18 65 36 70 40 18 14 209 111 255 130 25 10 72 30 105 44 33 15 69
31 80 36 11 5 70 28 130 51 61 22 133 50 160 62 28 11 68 24 90 28 42 7 154
37 265 69 36 11 83 22 105 25 55 8 218 34 291 46 213 36 608 47 904 24z"/>
<path d="M4343 8059 c-7 -7 -13 -21 -13 -30 0 -9 6 -21 13 -26 6 -6 89 -13
182 -17 94 -3 220 -13 280 -22 61 -8 143 -19 183 -24 92 -11 188 -28 227 -39
119 -35 160 -47 235 -72 47 -15 123 -42 170 -59 47 -18 96 -35 110 -40 25 -7
146 -63 310 -143 105 -51 357 -205 427 -261 29 -22 83 -63 120 -91 150 -109
351 -300 528 -499 85 -96 292 -370 320 -423 11 -21 41 -74 68 -117 58 -94 192
-370 231 -476 27 -74 51 -136 66 -175 5 -11 18 -49 30 -85 12 -36 26 -71 32
-77 15 -18 45 -16 56 3 11 19 5 43 -36 169 -25 79 -41 121 -84 225 -72 172
-188 398 -282 547 -57 90 -174 257 -205 292 -12 13 -21 27 -21 30 0 3 -15 22
-33 41 -18 19 -55 63 -82 98 -98 123 -425 429 -580 543 -141 103 -326 224
-420 275 -11 6 -40 22 -65 36 -25 13 -83 42 -130 63 -47 21 -113 51 -148 66
-34 16 -66 29 -70 29 -4 0 -19 7 -34 14 -34 18 -239 87 -328 111 -36 9 -76 21
-90 26 -40 13 -247 57 -345 73 -230 39 -599 59 -622 35z"/>
<path d="M3805 7993 c-32 -5 -71 -36 -80 -63 -15 -48 46 -100 117 -100 39 0
78 -24 78 -48 0 -9 -12 -25 -26 -36 -22 -15 -37 -18 -85 -12 -46 4 -59 3 -59
-8 0 -19 23 -26 85 -26 43 0 60 5 84 26 58 49 28 134 -47 134 -46 0 -98 24
-104 48 -9 35 24 56 87 54 49 -1 77 9 58 21 -14 9 -77 15 -108 10z"/>
<path d="M3297 7904 c-3 -3 -25 -10 -49 -15 -24 -6 -53 -17 -65 -24 -23 -15
-23 -12 7 -125 41 -158 43 -162 67 -156 13 3 35 9 51 12 15 3 36 9 47 14 11 5
31 10 45 12 15 2 26 10 28 21 3 16 -1 17 -35 11 -21 -4 -46 -11 -55 -15 -9 -5
-30 -9 -47 -9 -26 0 -32 5 -39 33 -11 40 1 67 31 68 12 0 40 9 62 19 32 14 37
19 22 25 -9 4 -27 4 -40 0 -78 -23 -87 -23 -102 -2 -31 45 -10 87 44 87 12 0
29 4 39 9 9 5 25 12 35 15 27 9 20 26 -11 26 -16 0 -31 -3 -35 -6z"/>
<path d="M2755 7701 c-3 -6 10 -44 30 -84 56 -117 52 -119 -91 -47 -54 27
-107 50 -116 50 -29 0 -22 -32 35 -149 36 -78 57 -111 70 -111 24 0 22 10 -20
95 -24 51 -33 79 -26 86 6 6 47 -8 123 -45 62 -30 117 -53 122 -50 20 12 2 62
-72 204 -29 56 -43 69 -55 51z"/>
<path d="M2110 7348 c-57 -30 -82 -65 -87 -125 -13 -155 177 -223 274 -97 57
76 25 192 -64 229 -48 20 -71 19 -123 -7z m113 -32 c94 -39 87 -170 -11 -212
-75 -31 -152 25 -152 110 0 48 14 72 53 96 38 23 66 25 110 6z"/>
<path d="M3848 7103 c-8 -10 -41 -88 -72 -173 -32 -85 -64 -169 -72 -187 -8
-17 -14 -36 -14 -42 0 -6 -4 -19 -10 -29 -5 -9 -28 -66 -51 -127 -23 -60 -47
-123 -54 -140 -7 -16 -20 -50 -28 -75 -8 -25 -21 -58 -27 -75 -7 -16 -16 -39
-20 -50 -14 -36 -38 -99 -65 -170 -15 -38 -33 -86 -40 -105 -93 -246 -303
-800 -322 -850 -14 -36 -31 -81 -38 -100 -7 -19 -25 -66 -40 -105 -15 -38 -33
-86 -40 -105 -13 -36 -41 -109 -90 -235 -15 -38 -33 -86 -40 -105 -8 -19 -84
-222 -170 -450 -86 -228 -160 -424 -165 -435 -4 -11 -14 -38 -23 -60 -8 -22
-27 -71 -42 -110 -15 -38 -34 -88 -42 -110 -34 -89 -45 -106 -71 -116 -15 -5
-35 -14 -44 -19 -10 -6 -22 -10 -28 -10 -5 0 -33 -11 -62 -24 -29 -13 -116
-50 -193 -81 -77 -32 -143 -63 -147 -69 -13 -19 -9 -73 6 -85 9 -8 162 -10
552 -9 l539 3 3 50 3 51 -43 18 c-24 11 -68 30 -98 44 -30 14 -73 33 -95 42
-22 10 -69 31 -105 48 -36 16 -75 32 -87 36 -11 4 -24 13 -26 21 -5 12 22 96
58 180 7 17 45 116 85 220 70 185 153 400 169 440 5 11 16 39 25 63 37 97 49
129 63 160 l14 32 690 -2 690 -3 19 -45 c10 -25 26 -67 36 -93 9 -26 20 -44
25 -40 4 4 45 82 92 173 46 91 99 192 117 225 18 33 47 85 63 115 16 30 45 79
64 109 45 70 43 89 -31 296 -32 88 -72 205 -91 260 -37 110 -127 367 -170 485
-15 41 -31 89 -35 105 -12 40 -58 175 -69 200 -5 11 -11 29 -14 40 -3 11 -24
72 -47 135 -23 63 -52 147 -65 185 -13 39 -49 142 -80 230 -30 88 -76 221
-101 295 -61 177 -68 190 -103 190 -15 0 -35 -8 -43 -17z m-139 -1148 c61
-180 166 -487 183 -535 3 -8 15 -44 27 -80 11 -36 57 -171 101 -300 45 -129
84 -244 87 -255 2 -11 8 -29 13 -40 5 -11 16 -45 26 -75 9 -30 20 -64 25 -75
35 -91 70 -208 65 -220 -5 -13 -85 -15 -643 -13 -615 3 -638 4 -641 22 -2 10
1 28 6 40 6 11 29 73 52 136 23 63 45 123 51 132 5 10 9 23 9 29 0 6 6 25 14
42 8 18 26 66 41 107 25 70 46 126 65 175 5 11 27 72 50 135 38 106 59 162 80
215 5 11 27 72 50 135 38 105 58 159 80 215 5 11 20 54 35 95 33 95 46 129 79
210 14 36 26 70 26 75 0 19 32 57 40 48 5 -4 40 -102 79 -218z"/>
<path d="M1665 6970 c-6 -10 156 -184 187 -201 14 -7 20 -6 24 6 4 11 -23 45
-87 110 -90 92 -111 106 -124 85z"/>
<path d="M1355 6629 c-83 -74 -72 -204 22 -253 70 -36 165 -6 207 66 21 34 21
88 1 88 -8 0 -15 -9 -15 -21 0 -73 -83 -128 -155 -104 -49 17 -65 34 -75 78
-14 64 -3 87 75 152 l30 24 -27 1 c-17 0 -41 -12 -63 -31z"/>
<path d="M6530 6334 c-92 -16 -229 -73 -344 -142 -50 -30 -104 -62 -120 -71
-16 -9 -52 -34 -80 -56 -28 -22 -76 -59 -106 -81 -30 -23 -74 -59 -96 -80
-134 -125 -166 -158 -234 -234 -41 -47 -77 -87 -80 -90 -44 -41 -308 -394
-435 -580 -72 -106 -255 -396 -255 -404 0 -2 -30 -55 -66 -117 -65 -113 -243
-465 -298 -589 -24 -54 -77 -180 -115 -275 -5 -11 -13 -31 -20 -45 -27 -61
-104 -286 -135 -395 -9 -33 -21 -73 -25 -90 -25 -87 -56 -248 -76 -405 -28
-211 -13 -654 26 -780 53 -168 119 -289 202 -371 84 -82 227 -140 350 -141 53
-1 141 15 182 32 129 53 242 120 369 219 48 38 237 201 256 221 10 10 396 376
445 422 47 43 157 136 242 204 111 89 282 189 397 232 76 29 228 62 282 62 43
0 64 13 43 26 -22 13 -198 5 -252 -12 -28 -9 -67 -21 -86 -26 -105 -31 -337
-165 -473 -272 -14 -12 -41 -32 -59 -46 -46 -35 -290 -240 -369 -310 -36 -32
-108 -95 -160 -140 -52 -45 -111 -98 -132 -116 -54 -49 -280 -219 -356 -268
-95 -61 -205 -112 -292 -135 -90 -25 -106 -26 -178 -5 -119 35 -227 201 -280
434 -45 193 -46 582 -2 825 19 107 42 213 62 285 11 41 24 93 28 115 5 22 23
81 40 130 17 50 34 99 37 110 2 11 8 29 13 40 4 11 14 38 23 60 178 474 440
972 795 1512 92 140 291 402 352 463 3 3 32 37 65 75 114 134 336 341 485 451
121 90 270 173 412 232 48 20 157 42 206 42 90 0 171 -39 236 -111 153 -170
197 -480 112 -792 -40 -151 -169 -427 -271 -582 -134 -203 -348 -433 -520
-556 -44 -32 -91 -66 -105 -76 -192 -139 -423 -234 -563 -232 -63 0 -99 22
-157 97 -34 44 -46 53 -68 50 -92 -11 51 -179 180 -214 154 -41 344 6 578 144
83 48 266 173 280 191 3 3 28 24 55 46 124 98 295 282 401 430 110 154 232
367 274 477 11 29 24 62 29 73 23 54 31 77 45 136 36 146 44 285 26 426 -39
292 -192 486 -438 559 -55 16 -231 27 -282 18z"/>
<path d="M1032 6134 c2 -8 39 -35 83 -59 51 -27 86 -54 98 -73 18 -30 17 -32
-2 -70 -33 -64 -68 -65 -194 0 -74 37 -106 42 -90 13 12 -21 179 -105 209
-105 61 0 124 71 124 140 0 42 -48 89 -134 134 -75 39 -99 44 -94 20z"/>
<path d="M1016 5486 c-9 -23 -16 -49 -16 -57 0 -8 -6 -23 -13 -34 -13 -17 -19
-17 -127 19 -112 37 -159 41 -129 11 24 -24 252 -95 266 -83 12 10 35 72 53
145 12 51 -15 50 -34 -1z"/>
<path d="M683 5015 c-53 -24 -78 -70 -78 -145 0 -49 5 -72 20 -92 27 -37 74
-58 127 -58 56 0 102 28 128 79 69 136 -58 276 -197 216z m122 -41 c21 -9 39
-29 50 -54 17 -38 17 -42 0 -86 -32 -84 -133 -105 -192 -41 -31 33 -38 95 -15
137 32 59 91 76 157 44z"/>
<path d="M7911 4972 c-16 -13 -25 -36 -33 -90 -13 -80 -31 -102 -67 -82 -25
13 -44 70 -35 105 6 23 4 26 -12 23 -24 -4 -29 -40 -14 -93 23 -79 81 -108
128 -65 22 21 26 33 37 110 11 85 58 100 89 29 15 -33 16 -48 8 -80 -9 -34 -8
-39 8 -39 29 0 40 75 18 127 -30 70 -82 92 -127 55z"/>
<path d="M7930 4377 c-162 -81 -164 -86 -30 -146 156 -70 183 -81 192 -75 12
8 -9 32 -44 50 -27 14 -28 17 -28 95 0 67 3 81 18 86 22 8 52 34 52 45 0 18
-41 4 -160 -55z m60 -82 c0 -43 -3 -55 -16 -55 -25 0 -125 53 -116 62 16 16
88 47 110 48 20 0 22 -5 22 -55z"/>
<path d="M726 4368 c-7 -13 -19 -41 -26 -63 -19 -64 -34 -90 -55 -93 -40 -8
-70 71 -45 119 9 15 7 21 -6 26 -23 8 -34 -14 -34 -70 0 -72 28 -107 84 -107
38 0 44 3 59 33 8 17 21 51 28 75 14 50 30 65 60 60 30 -4 44 -57 30 -112 -10
-40 -7 -56 9 -56 16 0 32 82 25 125 -10 63 -29 85 -75 85 -30 0 -43 -5 -54
-22z"/>
<path d="M4789 4038 c-59 -117 -117 -238 -129 -268 -12 -30 -35 -83 -51 -117
-64 -141 -62 -129 -35 -202 13 -36 32 -88 41 -116 9 -27 21 -59 25 -70 30 -78
41 -108 61 -167 12 -37 21 -70 18 -72 -5 -6 -91 -21 -194 -36 -154 -22 -148
-20 -163 -74 -12 -41 -12 -50 0 -57 7 -5 337 -8 733 -6 l720 2 0 50 0 50 -70
12 c-38 7 -99 17 -135 22 -206 32 -243 40 -257 53 -14 14 -43 93 -128 343 -19
55 -59 170 -88 255 -30 85 -64 184 -76 220 -13 36 -26 74 -31 85 -5 11 -22 61
-39 110 -59 171 -67 190 -81 193 -10 1 -49 -66 -121 -210z"/>
<path d="M7780 3818 c-13 -22 -20 -51 -20 -86 0 -94 47 -143 142 -150 58 -4
59 -4 102 39 31 32 45 55 49 84 8 52 -5 110 -23 110 -12 0 -14 -12 -12 -57 5
-71 -17 -111 -69 -132 -50 -20 -100 -6 -134 38 -31 41 -33 100 -5 136 11 14
20 31 20 38 0 24 -31 12 -50 -20z"/>
<path d="M712 3804 c-14 -25 24 -235 81 -444 24 -85 106 -325 122 -357 8 -15
15 -31 15 -36 0 -21 150 -331 203 -420 26 -43 47 -81 47 -83 0 -26 234 -354
361 -504 103 -123 305 -326 404 -405 33 -27 66 -55 74 -63 28 -27 317 -240
381 -280 128 -80 546 -292 575 -292 4 0 21 -6 38 -14 40 -18 155 -58 227 -79
30 -9 84 -26 120 -38 36 -11 85 -24 110 -29 25 -5 86 -18 135 -29 50 -12 117
-22 150 -24 58 -2 60 -1 63 25 4 33 -13 43 -88 53 -30 3 -68 11 -85 15 -16 5
-68 19 -115 30 -175 44 -266 68 -290 78 -14 6 -70 27 -125 47 -146 53 -164 61
-342 146 -169 82 -407 224 -532 318 -41 31 -95 71 -120 90 -76 57 -323 280
-371 336 -25 29 -79 90 -121 136 -91 100 -267 335 -324 432 -5 9 -38 63 -72
120 -58 96 -216 412 -233 467 -5 14 -22 63 -40 110 -42 115 -79 227 -90 275
-5 22 -16 67 -25 100 -27 99 -35 136 -49 229 -8 52 -19 92 -27 97 -22 14 -47
11 -57 -7z"/>
<path d="M7650 3261 c0 -14 23 -29 55 -36 17 -4 63 -18 103 -32 72 -24 113
-27 113 -8 -1 9 -78 38 -197 75 -38 12 -74 13 -74 1z"/>
<path d="M7513 2898 c-47 -95 -71 -153 -67 -160 11 -17 24 -6 44 32 12 23 24
39 28 37 45 -27 207 -97 222 -97 37 0 9 31 -54 59 -33 16 -82 38 -108 50 -53
24 -55 28 -33 72 15 28 13 49 -4 49 -4 0 -17 -19 -28 -42z"/>
<path d="M7216 2365 c-7 -20 -1 -34 74 -158 59 -97 84 -126 98 -113 2 3 -4 23
-15 44 -22 45 -16 58 65 162 2 3 22 5 45 5 31 0 42 4 42 15 0 11 -17 17 -60
22 -33 4 -78 12 -100 17 -82 20 -142 23 -149 6z m135 -36 c48 -17 55 -26 36
-47 -9 -10 -17 -23 -17 -28 0 -9 -40 -38 -45 -32 -18 21 -62 104 -59 110 7 11
45 10 85 -3z"/>
<path d="M6931 1987 c-12 -15 -11 -26 24 -156 20 -74 12 -90 -32 -73 -15 6
-63 19 -106 28 -120 27 -120 15 -1 -106 54 -55 103 -99 108 -97 25 8 13 33
-45 90 -55 55 -59 62 -40 65 12 2 51 -4 88 -13 87 -22 92 -16 69 75 -28 108
-17 116 57 42 61 -60 87 -75 87 -49 0 7 -44 56 -98 110 -83 82 -101 96 -111
84z"/>
<path d="M6383 1511 c-58 -27 -103 -62 -103 -80 0 -20 139 -226 151 -225 5 1
14 2 19 3 6 0 1 19 -10 42 -21 39 -21 41 -3 55 38 30 61 34 113 17 28 -9 54
-13 58 -9 10 11 -36 46 -60 46 -18 0 -20 5 -14 43 7 50 -19 102 -60 117 -34
13 -42 13 -91 -9z m98 -42 c16 -16 20 -29 15 -51 -6 -32 -15 -42 -61 -75 -36
-25 -48 -19 -88 40 -22 32 -24 42 -14 58 6 10 17 19 24 19 7 0 13 4 13 9 0 26
85 26 111 0z"/>
<path d="M5827 1209 c-42 -22 -74 -67 -83 -115 -7 -36 21 -109 52 -135 35 -31
91 -42 137 -29 76 21 117 71 119 144 2 121 -116 192 -225 135z m123 -24 c41
-21 70 -67 70 -109 0 -27 -8 -46 -34 -74 -31 -33 -40 -37 -83 -37 -60 0 -99
26 -113 76 -18 64 8 116 72 144 42 18 53 18 88 0z"/>
<path d="M5345 1027 c-112 -28 -120 -33 -119 -69 0 -18 8 -60 18 -93 10 -33
23 -80 29 -105 8 -30 18 -46 31 -48 16 -3 18 0 12 30 -17 79 -14 89 29 104 22
7 48 14 57 14 19 0 32 16 24 29 -4 5 -22 5 -43 -1 -96 -25 -98 -25 -110 27
-10 45 -10 46 18 60 15 8 38 15 51 15 26 0 68 25 68 41 0 11 -11 10 -65 -4z"/>
<path d="M4836 911 c-4 -5 -2 -49 4 -97 5 -48 7 -90 5 -92 -3 -3 -50 39 -105
94 -118 115 -123 114 -115 -16 9 -130 15 -167 30 -180 26 -22 30 49 9 163 -10
51 27 30 116 -65 109 -116 115 -114 106 31 -3 58 -10 119 -14 135 -8 31 -26
44 -36 27z"/>
<path d="M4216 868 c-10 -78 -9 -229 2 -240 16 -16 18 -4 31 133 14 150 14
149 -8 149 -14 0 -20 -10 -25 -42z"/>
</g>
</svg>
