<?xml version="1.0" standalone="no"?>
<!DOCTYPE svg PUBLIC "-//W3C//DTD SVG 20010904//EN"
 "http://www.w3.org/TR/2001/REC-SVG-20010904/DTD/svg10.dtd">
<svg version="1.0" xmlns="http://www.w3.org/2000/svg"
 width="868.000000pt" height="874.000000pt" viewBox="0 0 868.000000 874.000000"
 preserveAspectRatio="xMidYMid meet">

<g transform="translate(0.000000,874.000000) scale(0.100000,-0.100000)"
fill="#000000" stroke="none">
<path d="M3944 8599 c-4 -8 26 -9 107 -4 63 4 116 9 118 11 2 2 -46 4 -107 4
-69 0 -113 -4 -118 -11z"/>
<path d="M4630 8600 c118 -11 207 -11 190 0 -8 5 -71 9 -140 8 -118 -1 -121
-2 -50 -8z"/>
<path d="M3806 8581 c-5 -8 84 -3 93 5 2 2 -16 4 -42 4 -25 0 -48 -4 -51 -9z"/>
<path d="M4845 8585 c23 -8 85 -10 85 -3 0 4 -21 8 -47 7 -27 0 -43 -2 -38 -4z"/>
<path d="M3685 8570 c-4 -6 14 -10 47 -10 38 0 49 3 38 10 -20 13 -77 13 -85
0z"/>
<path d="M4965 8570 c-4 -6 14 -10 47 -10 38 0 49 3 38 10 -20 13 -77 13 -85
0z"/>
<path d="M3565 8550 c-3 -5 -35 -10 -70 -10 -35 0 -67 -4 -70 -10 -3 -5 -15
-10 -26 -10 -10 0 -19 -4 -19 -10 0 -5 -15 -10 -33 -10 -18 0 -38 -5 -44 -11
-5 -5 -36 -13 -67 -16 -31 -3 -56 -10 -56 -14 0 -5 -18 -9 -39 -9 -22 0 -43
-4 -46 -10 -3 -5 -15 -10 -27 -10 -11 0 -32 -8 -46 -18 -15 -10 -54 -27 -87
-37 -33 -11 -64 -23 -69 -27 -6 -4 -18 -8 -28 -8 -10 0 -18 -4 -18 -10 0 -5
-9 -10 -19 -10 -11 0 -36 -9 -58 -20 -21 -11 -51 -24 -67 -30 -16 -6 -26 -13
-23 -17 4 -3 23 2 44 11 68 31 77 34 188 77 61 22 133 50 160 62 28 11 68 24
90 28 46 8 172 42 260 69 34 10 99 24 145 30 99 14 137 29 73 30 -23 0 -45 -4
-48 -10z"/>
<path d="M5087 8550 c12 -5 50 -12 85 -15 35 -4 100 -18 144 -31 90 -26 108
-29 99 -14 -3 6 -19 10 -36 10 -16 0 -29 5 -29 10 0 6 -13 10 -30 10 -16 0
-30 5 -30 10 0 6 -26 10 -59 10 -33 0 -63 5 -66 10 -3 6 -27 10 -53 9 -37 0
-42 -2 -25 -9z"/>
<path d="M5450 8472 c24 -15 90 -24 90 -12 0 5 -8 10 -19 10 -10 0 -34 3 -52
6 -23 4 -29 2 -19 -4z"/>
<path d="M5560 8440 c20 -13 60 -13 60 0 0 6 -17 10 -37 10 -28 0 -34 -3 -23
-10z"/>
<path d="M5655 8415 c17 -8 38 -14 47 -15 9 0 20 -4 23 -10 3 -5 16 -10 28 -9
14 0 16 2 7 6 -20 6 -61 23 -82 34 -10 5 -26 9 -35 8 -12 0 -8 -5 12 -14z"/>
<path d="M5810 8359 c92 -42 100 -44 100 -29 0 6 -8 10 -18 10 -10 0 -22 4
-27 9 -6 5 -26 12 -45 15 -32 6 -33 5 -10 -5z"/>
<path d="M5930 8310 c19 -13 30 -13 30 0 0 6 -10 10 -22 10 -19 0 -20 -2 -8
-10z"/>
<path d="M6020 8274 c93 -43 120 -54 133 -54 13 0 -15 15 -107 55 -76 32 -98
32 -26 -1z"/>
<path d="M2570 8224 c-25 -13 -40 -24 -33 -24 15 0 103 38 103 45 0 10 -26 3
-70 -21z"/>
<path d="M6178 8203 c6 -2 18 -2 25 0 6 3 1 5 -13 5 -14 0 -19 -2 -12 -5z"/>
<path d="M2440 8163 c-64 -31 -65 -31 -58 -38 5 -5 128 53 128 61 0 8 -15 3
-70 -23z"/>
<path d="M6220 8186 c0 -2 7 -7 16 -10 8 -3 12 -2 9 4 -6 10 -25 14 -25 6z"/>
<path d="M6261 8166 c14 -12 89 -45 89 -39 0 5 -18 16 -40 26 -38 16 -59 22
-49 13z"/>
<path d="M2318 8093 c7 -3 16 -2 19 1 4 3 -2 6 -13 5 -11 0 -14 -3 -6 -6z"/>
<path d="M2255 8059 c-16 -11 -38 -22 -47 -25 -10 -4 -18 -10 -18 -15 0 -8
101 41 119 57 15 13 -29 -1 -54 -17z"/>
<path d="M4343 8059 c-7 -7 -13 -21 -13 -30 0 -9 6 -21 13 -26 6 -6 89 -13
182 -17 94 -3 220 -13 280 -22 61 -8 143 -19 183 -24 92 -11 188 -28 227 -39
119 -35 160 -47 235 -72 47 -15 123 -42 170 -59 47 -18 96 -35 110 -40 25 -7
146 -63 310 -143 105 -51 357 -205 427 -261 29 -22 83 -63 120 -91 150 -109
351 -300 528 -499 85 -96 292 -370 320 -423 11 -21 41 -74 68 -117 58 -94 192
-370 231 -476 27 -74 51 -136 66 -175 5 -11 18 -49 30 -85 12 -36 26 -71 32
-77 15 -18 45 -16 56 3 11 19 5 43 -36 169 -25 79 -41 121 -84 225 -72 172
-188 398 -282 547 -57 90 -174 257 -205 292 -12 13 -21 27 -21 30 0 3 -15 22
-33 41 -18 19 -55 63 -82 98 -98 123 -425 429 -580 543 -141 103 -326 224
-420 275 -11 6 -40 22 -65 36 -25 13 -83 42 -130 63 -47 21 -113 51 -148 66
-34 16 -66 29 -70 29 -4 0 -19 7 -34 14 -34 18 -239 87 -328 111 -36 9 -76 21
-90 26 -40 13 -247 57 -345 73 -230 39 -599 59 -622 35z"/>
<path d="M6472 8054 c10 -10 20 -15 24 -12 3 4 -5 12 -18 18 -22 12 -22 12 -6
-6z"/>
<path d="M2150 8002 c0 -4 -16 -16 -35 -26 -19 -11 -35 -23 -35 -27 0 -5 23 6
50 23 54 33 58 38 35 38 -8 0 -15 -3 -15 -8z"/>
<path d="M6550 8006 c0 -2 7 -6 15 -10 8 -3 15 -1 15 4 0 6 -7 10 -15 10 -8 0
-15 -2 -15 -4z"/>
<path d="M3805 7993 c-32 -5 -71 -36 -80 -63 -15 -48 46 -100 117 -100 39 0
78 -24 78 -48 0 -9 -12 -25 -26 -36 -22 -15 -37 -18 -85 -12 -46 4 -59 3 -59
-8 0 -19 23 -26 85 -26 43 0 60 5 84 26 58 49 28 134 -47 134 -46 0 -98 24
-104 48 -9 35 24 56 87 54 49 -1 77 9 58 21 -14 9 -77 15 -108 10z"/>
<path d="M6590 7985 c0 -2 10 -10 23 -16 20 -11 21 -11 8 4 -13 16 -31 23 -31
12z"/>
<path d="M2040 7930 c0 -5 -5 -10 -11 -10 -6 0 -17 -7 -25 -15 -19 -19 -15
-19 24 1 37 18 50 34 28 34 -9 0 -16 -4 -16 -10z"/>
<path d="M6698 7913 c7 -3 16 -2 19 1 4 3 -2 6 -13 5 -11 0 -14 -3 -6 -6z"/>
<path d="M3297 7904 c-3 -3 -25 -10 -49 -15 -24 -6 -53 -17 -65 -24 -23 -15
-23 -12 7 -125 41 -158 43 -162 67 -156 13 3 35 9 51 12 15 3 36 9 47 14 11 5
31 10 45 12 15 2 26 10 28 21 3 16 -1 17 -35 11 -21 -4 -46 -11 -55 -15 -9 -5
-30 -9 -47 -9 -26 0 -32 5 -39 33 -11 40 1 67 31 68 12 0 40 9 62 19 32 14 37
19 22 25 -9 4 -27 4 -40 0 -78 -23 -87 -23 -102 -2 -31 45 -10 87 44 87 12 0
29 4 39 9 9 5 25 12 35 15 27 9 20 26 -11 26 -16 0 -31 -3 -35 -6z"/>
<path d="M1934 7855 c-16 -14 -33 -25 -37 -25 -5 0 -15 -7 -23 -15 -29 -29 3
-15 56 25 29 22 49 40 43 40 -5 0 -23 -11 -39 -25z"/>
<path d="M6767 7869 c7 -7 15 -10 18 -7 3 3 -2 9 -12 12 -14 6 -15 5 -6 -5z"/>
<path d="M6814 7835 c11 -8 24 -15 30 -15 5 0 1 7 -10 15 -10 8 -23 14 -29 14
-5 0 -1 -6 9 -14z"/>
<path d="M6870 7795 c7 -8 17 -15 22 -15 5 0 3 7 -6 15 -8 8 -18 15 -22 15 -3
0 -1 -7 6 -15z"/>
<path d="M1809 7767 c-13 -13 -30 -26 -36 -28 -13 -5 -93 -77 -93 -84 0 -5 29
18 144 111 17 13 26 24 20 24 -5 0 -21 -11 -35 -23z"/>
<path d="M6955 7730 c3 -5 8 -10 11 -10 2 0 4 5 4 10 0 6 -5 10 -11 10 -5 0
-7 -4 -4 -10z"/>
<path d="M7025 7676 c28 -24 52 -42 54 -40 2 2 -11 15 -29 30 -18 15 -38 34
-45 41 -8 7 -17 13 -22 13 -4 0 15 -20 42 -44z"/>
<path d="M2755 7701 c-3 -6 10 -44 30 -84 56 -117 52 -119 -91 -47 -54 27
-107 50 -116 50 -29 0 -22 -32 35 -149 36 -78 57 -111 70 -111 24 0 22 10 -20
95 -24 51 -33 79 -26 86 6 6 47 -8 123 -45 62 -30 117 -53 122 -50 20 12 2 62
-72 204 -29 56 -43 69 -55 51z"/>
<path d="M1632 7625 c-12 -14 -18 -25 -14 -25 5 0 19 11 32 25 13 14 19 25 14
25 -6 0 -20 -11 -32 -25z"/>
<path d="M1494 7505 c-49 -46 -85 -85 -81 -85 4 0 36 27 70 59 34 32 76 70 92
85 17 14 25 26 19 26 -5 0 -50 -38 -100 -85z"/>
<path d="M7180 7545 c13 -14 26 -23 28 -20 5 5 -36 45 -46 45 -3 0 5 -11 18
-25z"/>
<path d="M7350 7383 c74 -76 136 -139 138 -142 1 -2 4 -2 8 1 6 7 -259 278
-272 278 -5 0 52 -62 126 -137z"/>
<path d="M2110 7348 c-57 -30 -82 -65 -87 -125 -13 -155 177 -223 274 -97 57
76 25 192 -64 229 -48 20 -71 19 -123 -7z m113 -32 c94 -39 87 -170 -11 -212
-75 -31 -152 25 -152 110 0 48 14 72 53 96 38 23 66 25 110 6z"/>
<path d="M1302 7314 c-12 -13 -19 -24 -14 -24 11 0 47 39 41 44 -2 2 -14 -7
-27 -20z"/>
<path d="M1215 7224 c-27 -31 -56 -62 -62 -69 -7 -8 -13 -17 -13 -22 0 -4 16
10 36 32 20 22 52 57 72 78 20 20 32 37 27 37 -6 0 -32 -25 -60 -56z"/>
<path d="M7536 7188 c23 -24 50 -56 62 -72 14 -18 22 -23 22 -13 0 8 -3 17 -8
19 -4 2 -27 27 -51 56 -24 28 -49 52 -55 52 -5 0 8 -19 30 -42z"/>
<path d="M1095 7083 c-40 -48 -54 -75 -19 -38 57 62 67 75 58 75 -5 0 -22 -17
-39 -37z"/>
<path d="M3848 7103 c-8 -10 -41 -88 -72 -173 -32 -85 -64 -169 -72 -187 -8
-17 -14 -36 -14 -42 0 -6 -4 -19 -10 -29 -5 -9 -28 -66 -51 -127 -23 -60 -47
-123 -54 -140 -7 -16 -20 -50 -28 -75 -8 -25 -21 -58 -27 -75 -7 -16 -16 -39
-20 -50 -14 -36 -38 -99 -65 -170 -15 -38 -33 -86 -40 -105 -93 -246 -303
-800 -322 -850 -14 -36 -31 -81 -38 -100 -7 -19 -25 -66 -40 -105 -15 -38 -33
-86 -40 -105 -13 -36 -41 -109 -90 -235 -15 -38 -33 -86 -40 -105 -8 -19 -84
-222 -170 -450 -86 -228 -160 -424 -165 -435 -4 -11 -14 -38 -23 -60 -8 -22
-27 -71 -42 -110 -15 -38 -34 -88 -42 -110 -34 -89 -45 -106 -71 -116 -15 -5
-35 -14 -44 -19 -10 -6 -22 -10 -28 -10 -5 0 -33 -11 -62 -24 -29 -13 -116
-50 -193 -81 -77 -32 -143 -63 -147 -69 -13 -19 -9 -73 6 -85 9 -8 162 -10
552 -9 l539 3 3 50 3 51 -43 18 c-24 11 -68 30 -98 44 -30 14 -73 33 -95 42
-22 10 -69 31 -105 48 -36 16 -75 32 -87 36 -11 4 -24 13 -26 21 -5 12 22 96
58 180 7 17 45 116 85 220 70 185 153 400 169 440 5 11 16 39 25 63 37 97 49
129 63 160 l14 32 690 -2 690 -3 19 -45 c10 -25 26 -67 36 -93 9 -26 20 -44
25 -40 4 4 45 82 92 173 46 91 99 192 117 225 18 33 47 85 63 115 16 30 45 79
64 109 45 70 43 89 -31 296 -32 88 -72 205 -91 260 -37 110 -127 367 -170 485
-15 41 -31 89 -35 105 -12 40 -58 175 -69 200 -5 11 -11 29 -14 40 -3 11 -24
72 -47 135 -23 63 -52 147 -65 185 -13 39 -49 142 -80 230 -30 88 -76 221
-101 295 -61 177 -68 190 -103 190 -15 0 -35 -8 -43 -17z m-139 -1148 c61
-180 166 -487 183 -535 3 -8 15 -44 27 -80 11 -36 57 -171 101 -300 45 -129
84 -244 87 -255 2 -11 8 -29 13 -40 5 -11 16 -45 26 -75 9 -30 20 -64 25 -75
35 -91 70 -208 65 -220 -5 -13 -85 -15 -643 -13 -615 3 -638 4 -641 22 -2 10
1 28 6 40 6 11 29 73 52 136 23 63 45 123 51 132 5 10 9 23 9 29 0 6 6 25 14
42 8 18 26 66 41 107 25 70 46 126 65 175 5 11 27 72 50 135 38 106 59 162 80
215 5 11 27 72 50 135 38 105 58 159 80 215 5 11 20 54 35 95 33 95 46 129 79
210 14 36 26 70 26 75 0 19 32 57 40 48 5 -4 40 -102 79 -218z"/>
<path d="M7666 7041 c25 -37 64 -82 64 -73 0 5 -17 27 -37 49 -21 22 -33 32
-27 24z"/>
<path d="M970 6933 c-24 -31 -49 -64 -55 -73 -5 -10 -16 -27 -23 -39 -7 -11
-9 -21 -4 -21 4 0 18 18 31 40 12 22 28 45 34 52 30 31 78 98 70 98 -4 -1 -28
-26 -53 -57z"/>
<path d="M1665 6970 c-6 -10 156 -184 187 -201 14 -7 20 -6 24 6 4 11 -23 45
-87 110 -90 92 -111 106 -124 85z"/>
<path d="M7740 6948 c0 -9 3 -18 8 -20 4 -1 17 -16 30 -32 12 -16 22 -25 22
-20 -1 17 -60 88 -60 72z"/>
<path d="M7810 6852 c0 -5 7 -15 15 -22 8 -7 15 -8 15 -2 0 5 -7 15 -15 22 -8
7 -15 8 -15 2z"/>
<path d="M7873 6761 c18 -27 34 -45 36 -39 2 6 -1 13 -6 17 -5 3 -18 21 -28
39 -11 17 -23 32 -26 32 -4 0 7 -22 24 -49z"/>
<path d="M852 6765 c-12 -14 -22 -28 -22 -32 0 -3 -7 -14 -16 -24 -9 -10 -14
-24 -11 -31 3 -9 7 -7 12 7 5 11 18 34 30 50 42 59 46 75 7 30z"/>
<path d="M7920 6696 c0 -10 143 -237 146 -233 7 7 -7 37 -17 37 -5 0 -9 9 -9
20 0 11 -4 20 -8 20 -5 0 -14 10 -21 23 -6 12 -20 36 -31 52 -11 17 -24 40
-29 52 -9 20 -31 41 -31 29z"/>
<path d="M1355 6629 c-83 -74 -72 -204 22 -253 70 -36 165 -6 207 66 21 34 21
88 1 88 -8 0 -15 -9 -15 -21 0 -73 -83 -128 -155 -104 -49 17 -65 34 -75 78
-14 64 -3 87 75 152 l30 24 -27 1 c-17 0 -41 -12 -63 -31z"/>
<path d="M753 6614 c-7 -7 -13 -16 -13 -19 0 -3 -16 -32 -37 -63 -52 -82 -83
-139 -83 -154 0 -7 16 13 35 45 19 32 35 60 35 63 0 2 19 34 41 70 39 62 49
88 22 58z"/>
<path d="M8070 6441 c0 -6 5 -13 10 -16 6 -3 10 1 10 9 0 9 -4 16 -10 16 -5 0
-10 -4 -10 -9z"/>
<path d="M8159 6273 c74 -146 108 -220 136 -293 10 -25 21 -54 26 -65 16 -35
80 -218 89 -253 9 -35 17 -49 25 -41 5 5 -18 75 -28 85 -4 4 -7 20 -7 36 0 15
-4 28 -10 28 -5 0 -10 11 -10 24 0 14 -4 27 -9 30 -5 3 -12 22 -16 42 -3 20
-10 44 -15 53 -31 62 -72 154 -87 199 -10 28 -21 52 -25 52 -5 0 -8 9 -8 19 0
11 -3 21 -7 23 -7 2 -45 73 -97 175 -6 13 -14 23 -19 23 -4 0 24 -62 62 -137z"/>
<path d="M580 6314 c-14 -27 -28 -51 -32 -54 -3 -3 -10 -18 -13 -33 -4 -15
-11 -30 -16 -33 -5 -3 -9 -15 -9 -27 0 -12 22 22 50 78 28 54 49 103 47 108
-1 5 -14 -13 -27 -39z"/>
<path d="M6530 6334 c-92 -16 -229 -73 -344 -142 -50 -30 -104 -62 -120 -71
-16 -9 -52 -34 -80 -56 -28 -22 -76 -59 -106 -81 -30 -23 -74 -59 -96 -80
-134 -125 -166 -158 -234 -234 -41 -47 -77 -87 -80 -90 -44 -41 -308 -394
-435 -580 -72 -106 -255 -396 -255 -404 0 -2 -30 -55 -66 -117 -65 -113 -243
-465 -298 -589 -24 -54 -77 -180 -115 -275 -5 -11 -13 -31 -20 -45 -27 -61
-104 -286 -135 -395 -9 -33 -21 -73 -25 -90 -25 -87 -56 -248 -76 -405 -28
-211 -13 -654 26 -780 53 -168 119 -289 202 -371 84 -82 227 -140 350 -141 53
-1 141 15 182 32 129 53 242 120 369 219 48 38 237 201 256 221 10 10 396 376
445 422 47 43 157 136 242 204 111 89 282 189 397 232 76 29 228 62 282 62 43
0 64 13 43 26 -22 13 -198 5 -252 -12 -28 -9 -67 -21 -86 -26 -105 -31 -337
-165 -473 -272 -14 -12 -41 -32 -59 -46 -46 -35 -290 -240 -369 -310 -36 -32
-108 -95 -160 -140 -52 -45 -111 -98 -132 -116 -54 -49 -280 -219 -356 -268
-95 -61 -205 -112 -292 -135 -90 -25 -106 -26 -178 -5 -119 35 -227 201 -280
434 -45 193 -46 582 -2 825 19 107 42 213 62 285 11 41 24 93 28 115 5 22 23
81 40 130 17 50 34 99 37 110 2 11 8 29 13 40 4 11 14 38 23 60 178 474 440
972 795 1512 92 140 291 402 352 463 3 3 32 37 65 75 114 134 336 341 485 451
121 90 270 173 412 232 48 20 157 42 206 42 90 0 171 -39 236 -111 153 -170
197 -480 112 -792 -40 -151 -169 -427 -271 -582 -134 -203 -348 -433 -520
-556 -44 -32 -91 -66 -105 -76 -192 -139 -423 -234 -563 -232 -63 0 -99 22
-157 97 -34 44 -46 53 -68 50 -92 -11 51 -179 180 -214 154 -41 344 6 578 144
83 48 266 173 280 191 3 3 28 24 55 46 124 98 295 282 401 430 110 154 232
367 274 477 11 29 24 62 29 73 23 54 31 77 45 136 36 146 44 285 26 426 -39
292 -192 486 -438 559 -55 16 -231 27 -282 18z"/>
<path d="M1032 6134 c2 -8 39 -35 83 -59 51 -27 86 -54 98 -73 18 -30 17 -32
-2 -70 -33 -64 -68 -65 -194 0 -74 37 -106 42 -90 13 12 -21 179 -105 209
-105 61 0 124 71 124 140 0 42 -48 89 -134 134 -75 39 -99 44 -94 20z"/>
<path d="M466 6080 c-16 -32 -29 -62 -28 -67 0 -4 -9 -25 -19 -45 -10 -21 -19
-44 -19 -53 0 -8 -4 -15 -10 -15 -5 0 -10 -11 -10 -24 0 -14 -4 -28 -10 -31
-5 -3 -10 -16 -10 -29 0 -12 -4 -26 -9 -31 -10 -11 -26 -85 -18 -85 2 0 14 28
26 63 50 139 74 204 91 242 45 99 58 135 52 135 -4 0 -20 -27 -36 -60z"/>
<path d="M314 5674 c-3 -10 -11 -30 -16 -44 -22 -51 -27 -66 -31 -90 -3 -14
-15 -61 -26 -105 -11 -44 -21 -90 -21 -102 0 -12 -4 -25 -10 -28 -5 -3 -10
-25 -9 -48 1 -54 10 -32 34 78 9 44 21 91 25 105 5 14 16 52 25 85 10 33 24
82 32 108 8 27 12 51 9 54 -3 3 -8 -3 -12 -13z"/>
<path d="M8436 5573 c4 -15 11 -36 15 -45 5 -9 9 -27 9 -40 0 -13 4 -28 9 -33
5 -6 11 -19 14 -30 4 -15 5 -14 6 7 0 15 -3 30 -9 33 -5 3 -10 19 -10 35 0 16
-4 32 -10 35 -5 3 -10 17 -10 30 0 13 -5 27 -10 30 -7 4 -8 -3 -4 -22z"/>
<path d="M1016 5486 c-9 -23 -16 -49 -16 -57 0 -8 -6 -23 -13 -34 -13 -17 -19
-17 -127 19 -112 37 -159 41 -129 11 24 -24 252 -95 266 -83 12 10 35 72 53
145 12 51 -15 50 -34 -1z"/>
<path d="M8490 5373 c0 -10 5 -25 10 -33 7 -11 10 -7 10 18 0 17 -4 32 -10 32
-5 0 -10 -8 -10 -17z"/>
<path d="M8510 5298 c1 -7 8 -35 16 -63 14 -47 14 -48 9 -10 -2 22 -5 50 -5
63 0 12 -4 22 -10 22 -5 0 -10 -6 -10 -12z"/>
<path d="M180 5152 c0 -26 -4 -52 -9 -57 -5 -6 -12 -55 -15 -110 -3 -62 -2
-89 3 -70 5 17 9 50 10 75 1 25 8 72 16 105 17 71 19 105 5 105 -5 0 -10 -22
-10 -48z"/>
<path d="M8541 5128 c0 -7 4 -22 9 -33 8 -18 9 -17 9 7 1 15 -3 30 -9 33 -5 3
-10 0 -9 -7z"/>
<path d="M683 5015 c-53 -24 -78 -70 -78 -145 0 -49 5 -72 20 -92 27 -37 74
-58 127 -58 56 0 102 28 128 79 69 136 -58 276 -197 216z m122 -41 c21 -9 39
-29 50 -54 17 -38 17 -42 0 -86 -32 -84 -133 -105 -192 -41 -31 33 -38 95 -15
137 32 59 91 76 157 44z"/>
<path d="M8573 4960 c0 -30 2 -43 4 -27 2 15 2 39 0 55 -2 15 -4 2 -4 -28z"/>
<path d="M7911 4972 c-16 -13 -25 -36 -33 -90 -13 -80 -31 -102 -67 -82 -25
13 -44 70 -35 105 6 23 4 26 -12 23 -24 -4 -29 -40 -14 -93 23 -79 81 -108
128 -65 22 21 26 33 37 110 11 85 58 100 89 29 15 -33 16 -48 8 -80 -9 -34 -8
-39 8 -39 29 0 40 75 18 127 -30 70 -82 92 -127 55z"/>
<path d="M8587 4833 c2 -38 8 -112 13 -166 13 -127 13 -501 0 -603 -13 -110
-18 -244 -9 -244 4 0 10 37 13 83 3 45 10 155 16 245 9 121 9 218 0 370 -18
347 -21 382 -30 382 -4 0 -6 -30 -3 -67z"/>
<path d="M134 4720 c0 -58 1 -81 3 -52 2 28 2 76 0 105 -2 28 -3 5 -3 -53z"/>
<path d="M117 4583 c-11 -11 -8 -461 3 -468 7 -4 10 77 10 234 0 133 -1 241
-3 241 -2 0 -7 -3 -10 -7z"/>
<path d="M7930 4377 c-162 -81 -164 -86 -30 -146 156 -70 183 -81 192 -75 12
8 -9 32 -44 50 -27 14 -28 17 -28 95 0 67 3 81 18 86 22 8 52 34 52 45 0 18
-41 4 -160 -55z m60 -82 c0 -43 -3 -55 -16 -55 -25 0 -125 53 -116 62 16 16
88 47 110 48 20 0 22 -5 22 -55z"/>
<path d="M726 4368 c-7 -13 -19 -41 -26 -63 -19 -64 -34 -90 -55 -93 -40 -8
-70 71 -45 119 9 15 7 21 -6 26 -23 8 -34 -14 -34 -70 0 -72 28 -107 84 -107
38 0 44 3 59 33 8 17 21 51 28 75 14 50 30 65 60 60 30 -4 44 -57 30 -112 -10
-40 -7 -56 9 -56 16 0 32 82 25 125 -10 63 -29 85 -75 85 -30 0 -43 -5 -54
-22z"/>
<path d="M4789 4038 c-59 -117 -117 -238 -129 -268 -12 -30 -35 -83 -51 -117
-64 -141 -62 -129 -35 -202 13 -36 32 -88 41 -116 9 -27 21 -59 25 -70 30 -78
41 -108 61 -167 12 -37 21 -70 18 -72 -5 -6 -91 -21 -194 -36 -154 -22 -148
-20 -163 -74 -12 -41 -12 -50 0 -57 7 -5 337 -8 733 -6 l720 2 0 50 0 50 -70
12 c-38 7 -99 17 -135 22 -206 32 -243 40 -257 53 -14 14 -43 93 -128 343 -19
55 -59 170 -88 255 -30 85 -64 184 -76 220 -13 36 -26 74 -31 85 -5 11 -22 61
-39 110 -59 171 -67 190 -81 193 -10 1 -49 -66 -121 -210z"/>
<path d="M134 4000 c0 -58 1 -81 3 -52 2 28 2 76 0 105 -2 28 -3 5 -3 -53z"/>
<path d="M7780 3818 c-13 -22 -20 -51 -20 -86 0 -94 47 -143 142 -150 58 -4
59 -4 102 39 31 32 45 55 49 84 8 52 -5 110 -23 110 -12 0 -14 -12 -12 -57 5
-71 -17 -111 -69 -132 -50 -20 -100 -6 -134 38 -31 41 -33 100 -5 136 11 14
20 31 20 38 0 24 -31 12 -50 -20z"/>
<path d="M156 3740 c3 -52 10 -99 15 -104 5 -6 9 -32 9 -58 0 -26 5 -48 10
-48 14 0 13 21 -5 115 -8 44 -19 105 -24 135 -9 47 -9 42 -5 -40z"/>
<path d="M712 3804 c-14 -25 24 -235 81 -444 24 -85 106 -325 122 -357 8 -15
15 -31 15 -36 0 -21 150 -331 203 -420 26 -43 47 -81 47 -83 0 -26 234 -354
361 -504 103 -123 305 -326 404 -405 33 -27 66 -55 74 -63 28 -27 317 -240
381 -280 128 -80 546 -292 575 -292 4 0 21 -6 38 -14 40 -18 155 -58 227 -79
30 -9 84 -26 120 -38 36 -11 85 -24 110 -29 25 -5 86 -18 135 -29 50 -12 117
-22 150 -24 58 -2 60 -1 63 25 4 33 -13 43 -88 53 -30 3 -68 11 -85 15 -16 5
-68 19 -115 30 -175 44 -266 68 -290 78 -14 6 -70 27 -125 47 -146 53 -164 61
-342 146 -169 82 -407 224 -532 318 -41 31 -95 71 -120 90 -76 57 -323 280
-371 336 -25 29 -79 90 -121 136 -91 100 -267 335 -324 432 -5 9 -38 63 -72
120 -58 96 -216 412 -233 467 -5 14 -22 63 -40 110 -42 115 -79 227 -90 275
-5 22 -16 67 -25 100 -27 99 -35 136 -49 229 -8 52 -19 92 -27 97 -22 14 -47
11 -57 -7z"/>
<path d="M8568 3759 c-1 -28 0 -53 5 -56 4 -2 7 21 7 51 0 70 -7 73 -12 5z"/>
<path d="M8547 3626 c-5 -15 -6 -31 -3 -34 8 -8 18 25 14 45 -3 13 -6 10 -11
-11z"/>
<path d="M8522 3489 c-14 -61 -15 -87 -3 -73 9 9 26 124 18 124 -2 0 -9 -23
-15 -51z"/>
<path d="M201 3478 c-1 -26 3 -49 8 -52 5 -3 11 -23 14 -43 3 -21 8 -49 11
-63 3 -14 9 -42 12 -63 3 -20 10 -40 15 -43 5 -3 9 -21 9 -40 0 -19 5 -34 10
-34 6 0 10 -13 10 -30 0 -16 5 -30 10 -30 6 0 10 -11 10 -24 0 -14 4 -27 9
-31 6 -3 13 -26 17 -50 3 -25 10 -48 15 -51 5 -3 9 -14 9 -25 0 -10 5 -19 10
-19 6 0 10 -7 10 -15 0 -8 5 -24 10 -35 6 -11 15 -29 20 -40 6 -11 10 -24 10
-30 0 -6 12 -37 27 -70 28 -65 54 -85 28 -22 -9 20 -34 84 -57 142 -22 58 -44
114 -49 125 -11 27 -60 172 -70 210 -4 17 -16 62 -27 100 -10 39 -27 106 -37
150 -28 125 -33 138 -34 83z"/>
<path d="M8496 3384 c-9 -24 -7 -54 4 -54 6 0 10 16 10 35 0 38 -4 44 -14 19z"/>
<path d="M8472 3277 c-8 -25 -12 -54 -9 -64 3 -11 5 -6 6 13 0 16 6 35 12 41
6 6 9 21 7 33 -2 18 -6 12 -16 -23z"/>
<path d="M7650 3261 c0 -14 23 -29 55 -36 17 -4 63 -18 103 -32 72 -24 113
-27 113 -8 -1 9 -78 38 -197 75 -38 12 -74 13 -74 1z"/>
<path d="M8442 3160 c0 -14 2 -19 5 -12 2 6 2 18 0 25 -3 6 -5 1 -5 -13z"/>
<path d="M8416 3088 c-10 -34 -13 -58 -8 -58 4 0 12 16 18 35 6 19 7 35 2 35
-5 0 -10 -6 -12 -12z"/>
<path d="M8387 3007 c-11 -29 -9 -53 4 -40 6 6 9 21 7 34 -3 21 -4 22 -11 6z"/>
<path d="M8367 2944 c-4 -4 -7 -14 -7 -23 0 -11 3 -12 11 -4 6 6 10 16 7 23
-2 6 -7 8 -11 4z"/>
<path d="M7513 2898 c-47 -95 -71 -153 -67 -160 11 -17 24 -6 44 32 12 23 24
39 28 37 45 -27 207 -97 222 -97 37 0 9 31 -54 59 -33 16 -82 38 -108 50 -53
24 -55 28 -33 72 15 28 13 49 -4 49 -4 0 -17 -19 -28 -42z"/>
<path d="M8342 2872 c-14 -31 -15 -42 -3 -42 8 0 25 60 18 66 -1 1 -8 -9 -15
-24z"/>
<path d="M8310 2796 c-5 -15 -10 -35 -9 -44 0 -14 2 -14 6 -2 2 8 9 25 15 37
6 13 8 26 5 29 -4 4 -11 -5 -17 -20z"/>
<path d="M8281 2714 c0 -11 3 -14 6 -6 3 7 2 16 -1 19 -3 4 -6 -2 -5 -13z"/>
<path d="M8257 2661 c-4 -17 -3 -21 5 -13 5 5 8 16 6 23 -3 8 -7 3 -11 -10z"/>
<path d="M8237 2623 c-4 -3 -7 -16 -6 -27 0 -19 1 -19 10 3 10 24 8 36 -4 24z"/>
<path d="M491 2609 c-1 -8 10 -39 24 -67 14 -29 25 -56 25 -62 0 -5 3 -10 8
-10 4 0 12 -10 18 -23 46 -93 89 -173 96 -175 4 -2 8 -10 8 -18 0 -8 5 -14 11
-14 6 0 -9 35 -33 78 -23 42 -68 129 -100 192 -31 63 -57 108 -57 99z"/>
<path d="M8206 2551 c-4 -7 -5 -15 -2 -18 9 -9 19 4 14 18 -4 11 -6 11 -12 0z"/>
<path d="M8187 2513 c-4 -3 -7 -11 -7 -17 0 -6 5 -5 12 2 6 6 9 14 7 17 -3 3
-9 2 -12 -2z"/>
<path d="M8147 2430 c-15 -27 -27 -56 -27 -62 1 -7 15 13 31 46 37 71 33 85
-4 16z"/>
<path d="M7216 2365 c-7 -20 -1 -34 74 -158 59 -97 84 -126 98 -113 2 3 -4 23
-15 44 -22 45 -16 58 65 162 2 3 22 5 45 5 31 0 42 4 42 15 0 11 -17 17 -60
22 -33 4 -78 12 -100 17 -82 20 -142 23 -149 6z m135 -36 c48 -17 55 -26 36
-47 -9 -10 -17 -23 -17 -28 0 -9 -40 -38 -45 -32 -18 21 -62 104 -59 110 7 11
45 10 85 -3z"/>
<path d="M8101 2334 c0 -11 3 -14 6 -6 3 7 2 16 -1 19 -3 4 -6 -2 -5 -13z"/>
<path d="M8076 2293 c-6 -14 -5 -15 5 -6 7 7 10 15 7 18 -3 3 -9 -2 -12 -12z"/>
<path d="M8046 2245 c-3 -8 -1 -15 4 -15 6 0 10 7 10 15 0 8 -2 15 -4 15 -2 0
-6 -7 -10 -15z"/>
<path d="M690 2226 c0 -11 53 -100 62 -104 4 -2 8 -8 8 -14 0 -5 7 -16 15 -24
22 -23 18 -7 -7 29 -13 18 -31 48 -42 67 -19 38 -36 59 -36 46z"/>
<path d="M8021 2202 c-17 -31 -13 -40 5 -14 9 13 14 26 11 29 -3 2 -10 -4 -16
-15z"/>
<path d="M7971 2114 c0 -11 3 -14 6 -6 3 7 2 16 -1 19 -3 4 -6 -2 -5 -13z"/>
<path d="M7935 2060 c-3 -5 -1 -10 4 -10 6 0 11 5 11 10 0 6 -2 10 -4 10 -3 0
-8 -4 -11 -10z"/>
<path d="M800 2040 c0 -5 5 -10 11 -10 5 0 7 5 4 10 -3 6 -8 10 -11 10 -2 0
-4 -4 -4 -10z"/>
<path d="M7895 2000 c-3 -5 -1 -10 4 -10 6 0 11 5 11 10 0 6 -2 10 -4 10 -3 0
-8 -4 -11 -10z"/>
<path d="M6931 1987 c-12 -15 -11 -26 24 -156 20 -74 12 -90 -32 -73 -15 6
-63 19 -106 28 -120 27 -120 15 -1 -106 54 -55 103 -99 108 -97 25 8 13 33
-45 90 -55 55 -59 62 -40 65 12 2 51 -4 88 -13 87 -22 92 -16 69 75 -28 108
-17 116 57 42 61 -60 87 -75 87 -49 0 7 -44 56 -98 110 -83 82 -101 96 -111
84z"/>
<path d="M7840 1920 c-18 -23 -30 -43 -27 -46 3 -3 19 15 37 40 38 57 33 60
-10 6z"/>
<path d="M931 1853 c24 -31 39 -45 39 -36 -1 11 -36 53 -45 53 -4 0 -1 -8 6
-17z"/>
<path d="M7786 1843 c-6 -14 -5 -15 5 -6 7 7 10 15 7 18 -3 3 -9 -2 -12 -12z"/>
<path d="M980 1795 c1 -12 39 -59 44 -54 2 2 -7 18 -20 34 -13 17 -24 26 -24
20z"/>
<path d="M7680 1711 c-12 -17 -18 -31 -13 -31 11 1 46 50 40 56 -3 3 -15 -9
-27 -25z"/>
<path d="M1030 1722 c0 -5 12 -19 27 -33 l27 -24 -23 33 c-23 32 -31 39 -31
24z"/>
<path d="M7608 1620 c-1 -5 -38 -47 -80 -94 -92 -100 -104 -126 -18 -38 33 33
60 63 60 67 0 3 11 18 25 33 14 15 25 30 25 34 0 11 -8 10 -12 -2z"/>
<path d="M1177 1545 c10 -13 22 -25 27 -25 5 0 -1 11 -14 25 -30 32 -36 32
-13 0z"/>
<path d="M6383 1511 c-58 -27 -103 -62 -103 -80 0 -20 139 -226 151 -225 5 1
14 2 19 3 6 0 1 19 -10 42 -21 39 -21 41 -3 55 38 30 61 34 113 17 28 -9 54
-13 58 -9 10 11 -36 46 -60 46 -18 0 -20 5 -14 43 7 50 -19 102 -60 117 -34
13 -42 13 -91 -9z m98 -42 c16 -16 20 -29 15 -51 -6 -32 -15 -42 -61 -75 -36
-25 -48 -19 -88 40 -22 32 -24 42 -14 58 6 10 17 19 24 19 7 0 13 4 13 9 0 26
85 26 111 0z"/>
<path d="M7420 1411 c-34 -36 -41 -54 -10 -24 19 18 32 34 29 36 -2 3 -11 -3
-19 -12z"/>
<path d="M7285 1280 c-27 -28 -45 -50 -40 -50 6 0 33 23 60 50 27 28 45 50 40
50 -6 0 -32 -23 -60 -50z"/>
<path d="M1500 1220 c0 -5 5 -10 11 -10 5 0 7 5 4 10 -3 6 -8 10 -11 10 -2 0
-4 -4 -4 -10z"/>
<path d="M5827 1209 c-42 -22 -74 -67 -83 -115 -7 -36 21 -109 52 -135 35 -31
91 -42 137 -29 76 21 117 71 119 144 2 121 -116 192 -225 135z m123 -24 c41
-21 70 -67 70 -109 0 -27 -8 -46 -34 -74 -31 -33 -40 -37 -83 -37 -60 0 -99
26 -113 76 -18 64 8 116 72 144 42 18 53 18 88 0z"/>
<path d="M7204 1207 c-6 -7 -35 -34 -65 -60 -29 -26 -49 -47 -44 -47 6 1 39
28 75 60 35 33 60 60 55 60 -6 -1 -15 -6 -21 -13z"/>
<path d="M1650 1090 c0 -5 5 -10 11 -10 5 0 7 5 4 10 -3 6 -8 10 -11 10 -2 0
-4 -4 -4 -10z"/>
<path d="M7011 1040 c-18 -17 -36 -30 -40 -30 -10 -1 -64 -51 -59 -55 2 -3 13
3 24 13 10 10 35 29 54 42 46 32 76 60 64 60 -5 0 -24 -14 -43 -30z"/>
<path d="M5345 1027 c-112 -28 -120 -33 -119 -69 0 -18 8 -60 18 -93 10 -33
23 -80 29 -105 8 -30 18 -46 31 -48 16 -3 18 0 12 30 -17 79 -14 89 29 104 22
7 48 14 57 14 19 0 32 16 24 29 -4 5 -22 5 -43 -1 -96 -25 -98 -25 -110 27
-10 45 -10 46 18 60 15 8 38 15 51 15 26 0 68 25 68 41 0 11 -11 10 -65 -4z"/>
<path d="M6824 900 c-71 -52 -78 -70 -9 -23 44 29 93 73 84 73 -4 0 -37 -22
-75 -50z"/>
<path d="M1874 915 c8 -8 20 -15 27 -15 7 0 4 6 -7 15 -25 19 -40 19 -20 0z"/>
<path d="M4836 911 c-4 -5 -2 -49 4 -97 5 -48 7 -90 5 -92 -3 -3 -50 39 -105
94 -118 115 -123 114 -115 -16 9 -130 15 -167 30 -180 26 -22 30 49 9 163 -10
51 27 30 116 -65 109 -116 115 -114 106 31 -3 58 -10 119 -14 135 -8 31 -26
44 -36 27z"/>
<path d="M4216 868 c-10 -78 -9 -229 2 -240 16 -16 18 -4 31 133 14 150 14
149 -8 149 -14 0 -20 -10 -25 -42z"/>
<path d="M1937 869 c12 -12 25 -20 28 -17 3 3 -7 13 -22 23 l-28 17 22 -23z"/>
<path d="M2002 824 c10 -10 20 -16 22 -13 3 3 -5 11 -17 18 -21 13 -21 12 -5
-5z"/>
<path d="M6705 815 c-16 -13 -25 -24 -20 -25 6 0 24 11 40 25 17 13 26 24 20
25 -5 0 -23 -11 -40 -25z"/>
<path d="M2040 803 c0 -10 40 -36 46 -30 3 2 -7 12 -21 21 -14 9 -25 13 -25 9z"/>
<path d="M6633 769 c-34 -22 -40 -29 -24 -29 10 0 70 49 61 50 -3 0 -20 -10
-37 -21z"/>
<path d="M2115 750 c3 -5 11 -10 16 -10 6 0 7 5 4 10 -3 6 -11 10 -16 10 -6 0
-7 -4 -4 -10z"/>
<path d="M2150 734 c0 -9 16 -21 77 -55 38 -21 43 -23 43 -11 0 5 -19 17 -42
27 -24 10 -51 25 -60 33 -10 8 -18 11 -18 6z"/>
<path d="M6540 713 c-166 -95 -405 -216 -530 -265 -16 -7 -20 -12 -12 -15 8
-3 24 -1 35 5 12 6 58 27 102 47 44 19 87 40 95 45 8 6 32 18 53 27 20 10 37
21 37 25 0 5 9 8 19 8 11 0 21 3 23 8 2 4 47 29 101 57 53 27 97 53 97 57 0 5
7 8 15 8 8 0 15 5 15 10 0 13 3 14 -50 -17z"/>
<path d="M2280 655 c0 -7 83 -46 88 -41 2 3 -14 14 -37 25 -41 22 -51 25 -51
16z"/>
<path d="M2380 602 c0 -4 28 -20 63 -37 34 -16 64 -32 67 -35 12 -13 207 -100
225 -100 8 0 15 -4 15 -10 0 -5 11 -10 25 -10 14 0 25 -4 25 -10 0 -5 8 -10
18 -10 10 0 22 -4 28 -9 13 -13 157 -61 182 -61 12 0 22 -4 22 -10 0 -5 11
-10 23 -10 13 0 27 -3 31 -7 10 -11 75 -31 120 -38 23 -3 50 -10 61 -14 43
-17 92 -31 113 -31 11 0 24 -4 27 -10 3 -5 24 -10 45 -10 21 0 42 -4 45 -10 3
-5 30 -10 60 -10 30 0 64 -4 77 -10 13 -5 68 -15 123 -20 55 -6 132 -16 170
-21 95 -15 714 -23 740 -10 11 6 58 12 105 15 111 6 286 29 296 39 4 4 27 7
51 7 25 0 43 5 43 11 0 12 -41 9 -145 -9 -95 -17 -209 -30 -360 -43 -271 -23
-822 4 -1035 51 -25 6 -92 20 -150 31 -58 12 -121 25 -140 29 -73 16 -362 102
-405 120 -11 5 -31 12 -45 16 -14 3 -43 15 -65 25 -22 10 -62 27 -90 37 -67
26 -171 74 -277 127 -49 25 -88 41 -88 37z"/>
<path d="M5905 404 c-63 -27 -189 -69 -290 -98 -33 -10 -69 -21 -80 -26 -11
-5 -31 -11 -45 -14 -14 -2 -61 -13 -105 -24 -44 -11 -107 -26 -140 -33 l-60
-14 44 -3 c24 -2 49 2 54 7 6 6 26 11 43 11 18 0 36 5 39 10 3 6 21 10 40 10
19 0 36 4 39 9 3 5 31 12 61 16 30 3 55 11 55 16 0 5 14 9 30 9 17 0 30 5 30
10 0 6 16 10 35 10 19 0 35 5 35 10 0 6 8 10 18 10 21 0 129 34 138 43 4 4 16
7 26 7 10 0 18 4 18 8 0 4 20 14 45 21 25 7 45 17 45 22 0 13 -8 11 -75 -17z"/>
</g>
</svg>
